<mxfile host="app.diagrams.net" modified="2024-04-07T07:12:44.173Z" agent="Mozilla/5.0 (X11; Linux x86_64) AppleWebKit/537.36 (KHTML, like Gecko) Chrome/123.0.0.0 Safari/537.36 Edg/123.0.0.0" etag="lI0NCgBc8AIAFyPzqrOM" version="24.2.0" type="github">
  <diagram name="第 1 页" id="q66TbeUEmXIvnhVCISni">
    <mxGraphModel dx="1386" dy="848" grid="0" gridSize="10" guides="1" tooltips="1" connect="1" arrows="1" fold="1" page="0" pageScale="1" pageWidth="300" pageHeight="400" math="0" shadow="0">
      <root>
        <mxCell id="0" />
        <mxCell id="1" parent="0" />
        <mxCell id="p86c0Jvzhr48NeTcUB-Z-1" value="" style="rounded=0;whiteSpace=wrap;html=1;" vertex="1" parent="1">
          <mxGeometry x="-131" y="-363" width="160" height="80" as="geometry" />
        </mxCell>
      </root>
    </mxGraphModel>
  </diagram>
</mxfile>
